<svg width="24" height="24" viewBox="0 0 24 24" fill="none" xmlns="http://www.w3.org/2000/svg">
<path d="M2.13743 10.9123L11.224 8.47843L10.5474 11.192C10.5474 11.192 11.2442 12.0096 15.3581 12.0096C19.472 12.0096 21.8228 8.47843 21.8228 8.47843C21.8228 8.47843 20.0597 14.5074 15.9458 15.5358C11.8319 16.5643 9.55215 15.1838 9.55215 15.1838L8.98344 17.4647L2.13743 10.9123Z" fill="#322F2B"/>
<path d="M10.5474 11.192L11.224 8.47843L2.13743 10.9123L8.98344 17.4647L9.55215 15.1838M10.5474 11.192L9.55215 15.1838M10.5474 11.192C10.5474 11.192 11.2442 12.0096 15.3581 12.0096C19.472 12.0096 21.8228 8.47843 21.8228 8.47843C21.8228 8.47843 20.0597 14.5074 15.9458 15.5358C11.8319 16.5643 9.55215 15.1838 9.55215 15.1838" stroke="#322F2B" stroke-linejoin="round"/>
</svg>
